<?xml version="1.0" standalone="no"?>
<!DOCTYPE svg PUBLIC "-//W3C//DTD SVG 20010904//EN"
 "http://www.w3.org/TR/2001/REC-SVG-20010904/DTD/svg10.dtd">
<svg version="1.0" xmlns="http://www.w3.org/2000/svg"
 width="2480.000000pt" height="2389.000000pt" viewBox="0 0 2480.000000 2389.000000"
 preserveAspectRatio="xMidYMid meet">

<g transform="translate(0.000000,2389.000000) scale(0.100000,-0.100000)"
fill="#000000" stroke="none">
<path d="M0 17844 l0 -6046 38 33 c146 128 282 253 282 259 0 4 -52 98 -116
209 -63 111 -114 205 -112 210 2 5 97 91 213 191 116 100 211 185 213 190 2 4
-21 50 -51 101 -30 52 -66 117 -82 144 -15 28 -47 84 -71 126 -24 42 -44 80
-44 85 1 14 458 314 478 314 29 0 227 -65 225 -74 -1 -5 -48 -34 -105 -64 -57
-30 -130 -70 -163 -89 -33 -18 -88 -48 -123 -65 -34 -18 -62 -35 -62 -39 0 -3
61 -111 136 -238 74 -128 134 -236 132 -241 -3 -8 -228 -195 -370 -308 -32
-25 -58 -48 -58 -51 0 -8 50 -126 139 -326 39 -88 70 -165 69 -171 -3 -13
-415 -324 -428 -324 -4 0 -35 20 -68 45 -33 25 -63 45 -66 45 -3 0 -6 -2646
-6 -5880 l0 -5880 12400 0 12400 0 0 11945 0 11945 -12400 0 -12400 0 0 -6046z
m19502 5626 l134 -395 60 -30 c32 -16 197 -93 366 -170 169 -77 308 -142 308
-145 0 -5 -671 -361 -703 -372 -5 -2 -106 -793 -107 -840 0 -4 -157 106 -350
243 l-349 250 -368 -65 c-202 -36 -379 -68 -392 -71 -20 -5 -22 -3 -17 12 4
10 59 186 122 391 l115 373 -169 367 c-93 202 -169 368 -168 369 1 1 185 -12
410 -29 l409 -30 276 276 c151 152 279 272 282 268 4 -4 67 -185 141 -402z
m-5715 -3889 c149 -85 952 -557 972 -571 24 -17 43 -94 67 -270 29 -222 17
-386 -51 -670 -67 -280 -86 -398 -92 -568 -7 -178 5 -253 49 -313 96 -132 331
-91 412 73 22 44 26 65 26 141 0 49 5 107 12 129 23 78 127 168 239 207 30 10
74 28 98 40 l43 22 -6 -28 -7 -29 100 -15 c172 -28 239 -79 283 -222 30 -94
32 -315 5 -417 -56 -211 -211 -356 -425 -399 -83 -17 -86 -19 -88 -47 -2 -16
-8 -103 -14 -194 -6 -91 -28 -424 -50 -740 l-40 -575 22 -30 c12 -16 124 -157
248 -313 124 -156 236 -298 250 -317 14 -18 58 -74 98 -125 l73 -91 -428 -432
c-942 -949 -1095 -1106 -1124 -1151 -94 -149 -266 -272 -450 -322 -99 -27
-264 -25 -359 4 -224 71 -515 276 -816 577 -124 123 -274 289 -321 354 -4 6
-110 -38 -207 -87 -243 -120 -460 -291 -626 -490 l-75 -91 -6 107 c-23 398 5
672 101 964 92 280 215 488 423 715 82 90 154 166 161 170 10 6 16 64 22 220
l9 211 -80 12 c-563 79 -997 485 -1087 1016 -17 102 -17 912 0 1239 34 641 84
1201 152 1698 21 158 30 199 87 399 l36 126 54 -40 c107 -78 257 -128 387
-128 163 0 506 49 696 100 406 109 844 185 1087 189 66 1 77 -2 140 -38z
m10071 -1712 c63 -31 163 -135 198 -205 23 -47 30 -75 33 -141 6 -142 -39
-256 -185 -471 -46 -67 -87 -134 -90 -149 -17 -65 54 -112 246 -163 200 -53
285 -110 340 -228 35 -73 47 -184 26 -254 -22 -76 -56 -98 -154 -98 -114 0
-118 -5 -76 -97 38 -83 34 -148 -13 -210 -32 -43 -54 -54 -131 -63 -91 -12
-100 -23 -74 -98 28 -78 17 -120 -47 -183 -38 -38 -56 -49 -103 -58 -69 -15
-94 -41 -104 -109 -13 -93 -49 -128 -142 -139 -43 -5 -65 2 -217 67 -94 40
-222 97 -285 127 -63 30 -182 84 -265 119 -423 182 -591 285 -1008 619 -69 55
-126 105 -126 111 -1 6 58 132 130 280 72 148 185 379 251 514 66 135 127 262
135 283 8 20 21 37 27 37 7 0 124 -57 260 -126 l246 -126 63 21 c87 28 205 57
333 81 194 36 262 68 355 167 73 77 114 159 156 313 19 69 42 138 52 155 34
59 82 66 169 24z m-6264 -4759 c131 -83 396 -295 551 -441 428 -402 681 -758
854 -1199 87 -221 107 -307 246 -1050 74 -399 144 -772 155 -830 88 -466 159
-854 156 -857 -1 -2 -60 -16 -131 -33 -70 -16 -129 -31 -131 -33 -2 -2 7 -68
21 -148 60 -352 138 -816 180 -1074 25 -154 61 -370 79 -480 105 -616 161
-1759 101 -2035 -22 -99 -69 -218 -119 -305 -59 -101 -224 -263 -357 -351
-104 -68 -159 -97 -479 -252 -136 -67 -453 -246 -625 -354 -298 -187 -759
-433 -1540 -822 -1437 -716 -1762 -874 -1897 -922 -256 -91 -382 -154 -538
-270 -133 -98 -214 -189 -355 -394 -161 -234 -190 -272 -333 -435 -29 -33 -58
-64 -64 -70 -5 -5 -22 -22 -37 -37 -351 -362 -441 -442 -598 -525 -112 -60
-248 -103 -346 -110 -79 -5 -85 -4 -137 25 -70 39 -162 65 -199 57 -16 -3 -56
-25 -88 -47 -97 -69 -155 -90 -259 -97 -51 -3 -90 -3 -87 1 2 5 -2 8 -10 8
-23 0 -64 38 -71 66 -8 30 20 95 60 140 47 55 103 160 139 259 60 168 77 206
135 305 79 135 84 145 123 240 55 136 98 285 100 345 1 67 -20 100 -84 132
-88 44 -180 23 -325 -74 -90 -61 -128 -81 -196 -104 -21 -7 -38 -16 -38 -19 0
-3 -11 -7 -25 -8 -14 -1 -42 -10 -63 -21 -20 -10 -75 -31 -122 -46 -72 -23
-103 -28 -206 -29 l-121 -1 -48 39 c-49 41 -74 85 -82 147 -5 34 -1 40 73 111
168 160 336 300 586 489 26 19 67 53 90 75 24 21 69 61 100 88 32 26 55 53 51
59 -3 6 -1 7 6 3 7 -5 34 15 69 47 31 31 77 73 102 94 24 21 51 45 60 53 9 8
65 60 125 115 60 55 121 111 135 125 79 77 192 148 266 169 21 6 95 16 164 21
245 19 323 43 445 134 33 25 78 58 100 73 79 55 125 95 118 106 -3 6 -1 7 5 3
6 -4 66 33 134 84 68 50 147 107 176 126 29 19 126 90 215 156 89 67 221 165
292 218 326 242 814 604 955 709 86 64 256 190 379 281 122 91 388 288 589
438 202 150 499 370 660 490 470 349 542 402 542 406 0 4 -88 829 -124 1161
-14 127 -42 385 -62 575 -20 190 -39 347 -41 349 -2 3 -96 -16 -210 -42 -114
-26 -208 -45 -210 -43 -3 3 -13 61 -173 996 -50 294 -116 677 -146 850 l-54
314 0 672 0 673 75 211 c42 117 109 295 151 397 63 157 84 198 138 267 36 46
111 171 176 291 62 116 116 214 121 219 5 6 612 162 680 175 3 1 26 -13 53
-29z m-12319 -953 l260 -82 46 -115 c26 -63 45 -117 43 -119 -3 -3 -217 82
-377 151 -115 50 -112 51 -162 -82 -119 -317 -144 -382 -148 -387 -3 -2 -128
20 -279 51 -313 64 -276 70 -337 -54 -119 -241 -184 -362 -196 -366 -14 -6
-505 113 -516 125 -4 3 -9 48 -12 99 l-5 94 47 -7 c25 -3 102 -15 170 -26 68
-12 151 -21 183 -22 l60 -2 59 155 c99 257 109 280 129 280 17 0 487 -84 535
-96 17 -4 25 8 53 83 19 48 39 102 47 118 7 17 34 87 61 157 33 86 54 127 64
127 8 0 132 -37 275 -82z m6651 -48 c150 -21 275 -85 358 -186 197 -237 307
-625 291 -1026 -9 -205 -45 -1491 -45 -1580 0 -54 -4 -80 -15 -91 -8 -8 -15
-27 -15 -41 0 -15 -9 -73 -21 -128 -16 -81 -20 -128 -17 -229 l4 -126 -86 -22
c-47 -12 -132 -35 -190 -51 -195 -53 -554 -147 -664 -174 l-109 -27 -117 21
c-65 12 -126 18 -135 14 -13 -4 -16 -3 -11 5 4 8 0 12 -12 12 -10 0 -143 23
-296 50 -152 28 -281 48 -286 45 -6 -4 -10 -1 -10 4 0 6 -9 11 -20 11 -10 0
-104 15 -207 34 -103 19 -255 46 -338 61 -82 14 -208 38 -280 51 -71 14 -204
39 -295 55 -91 16 -201 36 -245 44 -129 25 -868 158 -970 175 -52 9 -246 44
-444 80 -62 11 -206 36 -320 55 -113 20 -212 37 -218 40 -19 6 -16 54 8 141
32 117 92 209 205 314 38 35 60 60 49 57 -18 -6 -17 -5 3 13 35 29 193 76 302
90 144 18 217 5 435 -75 97 -36 103 -37 200 -31 123 7 129 8 189 35 94 42 301
47 461 11 122 -27 255 -83 310 -131 33 -29 125 -169 125 -189 0 -23 28 -7 33
18 3 16 24 55 46 88 49 71 62 129 48 211 -9 53 -3 136 17 240 7 34 -23 62 -77
72 -146 27 -185 231 -64 337 l35 32 184 6 c100 3 386 11 633 17 248 6 451 12
453 14 3 2 16 85 97 607 48 306 55 330 136 470 150 259 362 449 610 547 97 38
164 46 275 30z m2672 -2328 c371 -66 676 -121 678 -123 4 -5 -34 -399 -39
-404 -3 -3 -1293 145 -1415 162 -39 5 -43 8 -39 27 3 12 20 99 37 192 53 296
48 277 78 271 15 -4 330 -60 700 -125z m-8998 -6143 c0 -39 -6 -137 -40 -703
l-11 -180 -32 -28 c-47 -41 -264 -169 -315 -186 -89 -29 -206 19 -239 97 -31
74 5 163 106 268 78 81 99 127 126 269 9 50 23 123 30 164 8 41 26 98 40 127
48 99 157 182 265 203 72 14 70 15 70 -31z"/>
<path d="M13415 19084 c-80 -18 -168 -61 -173 -85 -5 -28 65 -46 358 -93 472
-76 501 -79 508 -43 9 46 -165 161 -313 207 -93 29 -280 36 -380 14z"/>
<path d="M11783 19046 c-104 -26 -203 -90 -203 -131 0 -22 36 -44 100 -62 51
-14 104 -18 245 -17 188 0 244 8 287 44 22 18 22 20 8 47 -52 95 -284 158
-437 119z"/>
<path d="M13530 18531 c-30 -10 -69 -25 -86 -34 -37 -19 -144 -115 -144 -128
0 -5 33 8 73 30 159 88 315 94 520 19 31 -11 60 -19 62 -16 9 9 -54 64 -104
91 -102 56 -222 70 -321 38z"/>
<path d="M11779 18517 c-75 -26 -127 -58 -184 -117 -37 -38 -44 -70 -8 -37 30
26 143 76 202 88 88 18 211 7 319 -30 51 -17 98 -31 104 -31 19 0 -43 59 -90
87 -108 64 -231 78 -343 40z"/>
<path d="M12626 18268 c-55 -134 -157 -385 -229 -558 -71 -173 -145 -360 -163
-415 l-34 -99 72 -68 73 -67 198 -1 197 0 0 40 0 40 -178 0 -178 0 -42 36
c-23 19 -42 41 -42 48 0 38 62 192 497 1243 3 9 -53 43 -71 43 -1 0 -46 -109
-100 -242z"/>
<path d="M11860 18333 c-43 -5 -77 -35 -101 -88 -63 -137 44 -269 196 -241 43
8 103 59 121 103 29 69 5 167 -51 211 -28 22 -71 26 -165 15z"/>
<path d="M13605 18333 c-47 -5 -81 -33 -106 -88 -70 -152 83 -299 235 -225
105 51 126 192 44 286 -32 36 -50 39 -173 27z"/>
<path d="M13160 16994 c-64 -174 -87 -215 -161 -292 -80 -82 -197 -129 -334
-133 -36 -1 -68 -6 -71 -10 -7 -12 63 -45 124 -58 242 -51 430 70 473 305 21
115 -3 264 -31 188z"/>
<path d="M12258 14101 c-5 -35 -7 -98 -7 -140 l2 -76 9 85 c5 47 7 110 6 140
l-3 55 -7 -64z"/>
<path d="M11835 10885 c-210 -39 -444 -149 -577 -272 -14 -14 -31 -22 -37 -18
-7 3 -10 2 -9 -3 2 -5 -23 -37 -54 -71 -32 -34 -58 -68 -58 -76 0 -16 36 -21
42 -5 7 21 125 133 195 186 181 136 443 233 631 234 55 0 62 2 62 20 0 18 -6
20 -62 19 -35 -1 -94 -7 -133 -14z"/>
<path d="M10974 10169 c-7 -14 -32 -40 -57 -59 -52 -39 -65 -60 -39 -60 31 0
83 40 98 76 18 43 16 82 -2 43z"/>
<path d="M10060 10111 l-135 -6 -3 -32 -2 -33 137 -1 c198 -1 427 2 432 6 2 3
5 18 7 35 l4 30 -124 0 c-68 0 -136 1 -152 3 -16 2 -90 1 -164 -2z"/>
<path d="M12050 10066 c-322 -96 -645 -267 -888 -468 -47 -40 -87 -66 -94 -62
-7 4 -8 3 -4 -4 4 -6 -13 -29 -39 -53 -48 -44 -54 -56 -31 -65 7 -3 41 21 77
55 35 33 70 58 77 56 7 -3 11 -1 8 4 -11 16 168 156 185 145 7 -4 9 -3 6 3
-13 20 289 191 468 266 60 25 238 85 305 103 20 6 36 17 38 27 4 22 -15 21
-108 -7z"/>
<path d="M10771 9729 c-1 -61 24 -206 49 -276 24 -69 90 -186 132 -233 28 -32
29 -33 12 -5 -116 191 -154 295 -183 500 -9 60 -9 60 -10 14z"/>
<path d="M9605 9053 c8 -116 24 -151 24 -53 0 46 -6 87 -15 105 -13 28 -14 25
-9 -52z"/>
<path d="M11945 9014 c-95 -23 -225 -70 -321 -116 -83 -39 -237 -128 -258
-149 -6 -5 -25 8 -49 34 -38 41 -39 41 -18 7 67 -109 98 -172 113 -230 17 -64
17 -64 17 -22 1 36 -15 94 -43 162 -5 11 16 29 76 67 155 97 364 184 516 215
48 9 62 16 62 30 0 21 -13 22 -95 2z"/>
</g>
</svg>
