<?xml version="1.0" standalone="no"?>
<!DOCTYPE svg PUBLIC "-//W3C//DTD SVG 20010904//EN"
 "http://www.w3.org/TR/2001/REC-SVG-20010904/DTD/svg10.dtd">
<svg version="1.0" xmlns="http://www.w3.org/2000/svg"
 width="1890.000000pt" height="2133.000000pt" viewBox="0 0 1890.000000 2133.000000"
 preserveAspectRatio="xMidYMid meet">

<g transform="translate(0.000000,2133.000000) scale(0.100000,-0.100000)"
fill="#000000" stroke="none">
<path d="M4880 12540 c-381 -29 -683 -258 -668 -510 3 -56 13 -86 70 -205 100
-212 130 -315 150 -512 12 -127 11 -144 -43 -568 -12 -99 -22 -234 -23 -323
l-1 -153 -26 -6 c-25 -5 -26 -8 -33 -96 -10 -140 -7 -191 11 -238 9 -26 17
-77 18 -124 1 -73 22 -155 70 -277 6 -15 2 -18 -24 -18 l-31 0 0 -85 c0 -49 6
-99 13 -118 8 -18 17 -48 21 -68 8 -42 26 -49 134 -49 l65 0 -6 153 c-5 162
-9 183 -35 192 -46 15 -52 29 -42 86 9 49 7 63 -16 129 -14 41 -29 98 -33 126
l-7 51 47 -48 c52 -51 106 -76 244 -111 102 -26 359 -35 490 -18 50 6 118 14
153 17 l62 6 0 -175 c0 -96 -3 -290 -7 -431 l-6 -257 -102 0 -102 0 -7 -31
c-3 -17 -6 -47 -6 -65 0 -34 0 -34 48 -34 27 0 110 -3 185 -7 l137 -6 -7 505
-6 504 89 11 c49 7 97 15 107 18 16 7 17 -22 17 -513 l0 -519 181 -1 182 -2
-6 67 c-4 36 -8 68 -11 70 -2 3 -47 7 -100 10 l-96 6 0 351 c0 193 -3 401 -6
462 l-7 110 94 33 c102 35 322 146 433 218 131 85 240 220 269 334 l14 54 111
21 c171 33 162 29 162 68 0 31 -11 44 -132 150 -124 108 -135 116 -165 111
-29 -5 -33 -3 -33 16 0 31 -55 219 -86 292 -121 287 -377 698 -534 856 -133
136 -266 231 -561 405 -220 129 -341 156 -609 136z m240 -126 c71 -16 258 -93
385 -158 195 -100 404 -290 594 -542 123 -164 197 -285 309 -509 96 -190 115
-238 147 -370 26 -105 35 -283 15 -286 -5 -1 -14 -2 -20 -3 -6 -1 -12 43 -14
104 -8 176 -46 291 -193 583 -145 287 -299 503 -503 707 -167 167 -271 241
-454 322 -50 22 -109 48 -131 57 -150 67 -292 85 -452 57 -97 -17 -129 -33
-171 -81 -48 -54 -66 -95 -66 -151 0 -61 26 -117 125 -269 40 -61 88 -139 108
-175 19 -36 52 -92 73 -125 66 -101 80 -168 77 -352 -5 -220 10 -831 22 -931
23 -190 99 -290 276 -360 63 -24 78 -26 218 -26 125 0 169 5 265 26 122 28
279 52 286 45 3 -3 -28 -16 -68 -30 -228 -80 -460 -112 -618 -83 -212 38 -356
167 -396 355 -15 71 -36 724 -33 1011 1 93 -2 171 -9 195 -19 62 -100 207
-235 418 -109 169 -129 211 -135 283 -10 126 82 249 215 286 97 27 263 28 383
2z m-37 -148 c67 -29 115 -113 104 -182 -21 -126 -157 -180 -279 -112 -61 34
-83 69 -83 132 0 127 138 214 258 162z m782 -517 c93 -26 176 -161 161 -266
-17 -126 -140 -228 -253 -210 -187 31 -277 265 -156 407 62 72 148 96 248 69z
m-554 -106 c93 -48 160 -169 144 -263 -18 -106 -122 -187 -229 -178 -133 11
-227 105 -227 228 -1 181 159 290 312 213z m689 -533 c-8 -5 -26 -9 -40 -9
-23 1 -23 2 5 9 43 11 52 11 35 0z m-215 -250 c-3 -5 -14 -10 -23 -9 -14 0
-13 2 3 9 27 11 27 11 20 0z m974 -195 c30 -27 38 -41 33 -58 -9 -38 -56 -52
-66 -19 -10 33 -18 112 -12 112 3 0 24 -16 45 -35z m-710 -119 c-2 -2 -20 -6
-39 -10 -25 -4 -31 -3 -20 4 14 9 69 15 59 6z m501 -151 c-36 -103 -106 -182
-237 -268 -70 -45 -146 -87 -158 -87 -3 0 -5 11 -5 23 0 16 9 28 26 36 56 25
222 142 253 177 29 32 71 110 85 157 3 10 15 17 30 17 l25 0 -19 -55z m-579
-52 c13 -16 12 -17 -3 -4 -17 13 -22 21 -14 21 2 0 10 -8 17 -17z m149 3 c0
-6 -75 -56 -85 -56 -4 0 12 13 36 30 45 31 49 33 49 26z"/>
<path d="M5768 11439 c-37 -21 -11 -89 39 -104 15 -4 28 0 42 14 54 54 -15
129 -81 90z"/>
<path d="M5220 11320 c-25 -25 -25 -31 0 -63 42 -53 100 -43 100 18 0 57 -60
85 -100 45z"/>
<path d="M10350 11935 l0 -195 -70 0 -70 0 0 -115 0 -115 70 0 70 0 0 -420 0
-420 130 0 130 0 0 420 0 420 80 0 80 0 0 115 0 115 -80 0 -80 0 0 195 0 195
-130 0 -130 0 0 -195z"/>
<path d="M8560 11390 l0 -720 135 0 135 0 0 720 0 720 -135 0 -135 0 0 -720z"/>
<path d="M9590 11756 c-57 -16 -103 -40 -161 -82 -26 -19 -49 -34 -53 -34 -3
0 -6 23 -6 50 l0 50 -130 0 -130 0 0 -535 0 -535 129 0 129 0 4 318 c4 300 5
320 27 374 77 195 314 214 372 30 8 -24 13 -157 16 -379 l5 -343 129 0 130 0
-3 418 c-4 473 -4 472 -85 562 -64 71 -149 111 -249 116 -48 2 -97 -2 -124
-10z"/>
<path d="M11245 11757 c-87 -23 -148 -58 -221 -131 -117 -116 -164 -237 -164
-421 0 -206 81 -370 237 -479 88 -61 157 -81 273 -80 115 1 185 24 266 90 29
24 56 44 59 44 3 0 5 -25 5 -55 l0 -55 130 0 130 0 0 535 0 535 -130 0 -130 0
0 -55 c0 -30 -2 -55 -5 -55 -3 0 -31 20 -63 45 -32 25 -85 55 -118 66 -73 26
-200 33 -269 16z m264 -253 c68 -20 141 -86 172 -157 19 -41 23 -70 24 -142 0
-79 -3 -97 -28 -147 -66 -135 -221 -201 -358 -153 -205 73 -265 377 -105 534
76 75 183 99 295 65z"/>
<path d="M12571 11754 c-111 -30 -213 -104 -280 -205 -108 -161 -120 -417 -29
-601 43 -86 147 -189 230 -228 173 -81 375 -61 501 50 19 16 37 30 39 30 8 0
-2 -100 -13 -146 -13 -50 -67 -106 -124 -130 -102 -42 -292 -24 -367 36 l-37
30 -145 0 c-80 0 -146 -3 -146 -6 0 -3 12 -30 26 -60 40 -85 123 -168 208
-208 105 -50 163 -61 316 -61 113 0 147 4 210 24 188 58 291 175 325 368 11
60 14 198 15 586 l0 507 -130 0 c-145 0 -135 6 -130 -77 1 -18 -1 -33 -5 -33
-4 0 -25 15 -48 34 -116 93 -275 128 -416 90z m330 -271 c219 -123 186 -481
-50 -550 -155 -45 -319 36 -367 180 -24 72 -21 172 6 236 28 64 105 135 169
156 74 24 177 15 242 -22z"/>
<path d="M13990 11763 c-207 -35 -381 -197 -435 -408 -19 -76 -19 -234 0 -310
37 -140 151 -283 275 -343 175 -86 426 -80 589 15 43 25 161 136 161 152 0 4
-48 30 -107 58 l-107 50 -62 -42 c-75 -52 -143 -70 -234 -62 -79 7 -149 38
-197 89 -35 37 -72 111 -73 146 l0 22 431 0 431 0 -7 87 c-20 238 -121 406
-297 492 -101 50 -257 73 -368 54z m242 -251 c55 -24 128 -95 145 -141 l11
-31 -289 0 c-159 0 -289 3 -289 8 0 13 41 76 69 105 76 83 239 110 353 59z"/>
<path d="M7310 11731 c0 -8 124 -302 384 -911 l62 -145 86 -3 86 -3 137 323
c76 178 177 417 226 531 49 115 89 210 89 213 0 2 -60 4 -133 4 l-133 0 -103
-242 c-160 -378 -165 -388 -168 -384 -2 2 -63 142 -136 312 l-132 309 -133 3
c-78 1 -132 -1 -132 -7z"/>
<path d="M13080 10040 l0 -120 -55 0 -55 0 0 -40 0 -40 55 0 55 0 0 -280 0
-280 40 0 40 0 0 280 0 280 65 0 65 0 0 40 0 40 -65 0 -65 0 0 120 0 120 -40
0 -40 0 0 -120z"/>
<path d="M7581 9915 c-26 -8 -62 -32 -87 -56 l-44 -43 0 52 0 52 -40 0 -40 0
0 -320 0 -320 39 0 39 0 4 198 c3 188 5 200 30 254 62 134 234 160 298 45 22
-38 24 -54 28 -269 l5 -228 38 0 39 0 0 180 c0 98 5 201 11 228 33 157 236
217 316 95 16 -24 18 -58 21 -265 l3 -238 40 0 41 0 -4 243 c-3 207 -6 248
-22 284 -65 153 -279 163 -389 19 l-33 -43 -26 47 c-48 86 -155 120 -267 85z"/>
<path d="M9685 9917 c-66 -22 -99 -43 -144 -92 -66 -71 -86 -124 -86 -225 0
-102 27 -169 94 -238 67 -68 117 -87 236 -87 91 0 105 3 159 30 57 29 136 105
136 131 0 7 -13 20 -28 28 -28 14 -30 14 -71 -29 -113 -117 -319 -111 -404 12
-14 21 -29 52 -32 68 -4 17 -9 38 -12 48 -4 16 14 17 288 17 l292 0 -7 53
c-15 113 -86 216 -183 263 -65 32 -175 42 -238 21z m210 -95 c22 -11 52 -33
67 -49 25 -27 62 -102 55 -110 -2 -2 -110 -2 -240 -1 l-237 3 24 51 c24 53 66
91 126 119 47 21 152 15 205 -13z"/>
<path d="M11440 9917 c-81 -23 -161 -88 -199 -163 -118 -229 60 -502 314 -482
76 7 148 38 198 86 l37 36 0 -57 0 -57 40 0 40 0 0 320 0 320 -40 0 -40 0 0
-56 0 -56 -41 37 c-23 20 -62 46 -88 58 -56 25 -160 31 -221 14z m205 -91
c120 -57 175 -190 130 -317 -45 -126 -206 -193 -333 -139 -57 25 -116 83 -139
139 -21 48 -20 136 1 186 55 130 214 191 341 131z"/>
<path d="M14463 9911 c-66 -30 -100 -99 -88 -177 8 -59 62 -113 164 -169 78
-42 104 -69 104 -111 0 -104 -151 -141 -227 -55 l-19 21 -24 -22 c-31 -29 -29
-41 13 -76 138 -114 346 -24 332 144 -6 68 -26 98 -99 142 -132 81 -154 98
-167 124 -18 38 -5 76 32 99 45 27 85 24 140 -12 l47 -32 25 24 24 23 -22 24
c-31 34 -115 72 -158 72 -19 0 -54 -9 -77 -19z"/>
</g>
</svg>
