<?xml version="1.0" standalone="no"?>
<!DOCTYPE svg PUBLIC "-//W3C//DTD SVG 20010904//EN"
 "http://www.w3.org/TR/2001/REC-SVG-20010904/DTD/svg10.dtd">
<svg version="1.0" xmlns="http://www.w3.org/2000/svg"
 width="1510.000000pt" height="1417.000000pt" viewBox="0 0 1510.000000 1417.000000"
 preserveAspectRatio="xMidYMid meet">

<g transform="translate(0.000000,1417.000000) scale(0.100000,-0.100000)"
fill="#000000" stroke="none">
<path d="M0 7085 l0 -7085 7550 0 7550 0 0 3878 c0 2289 -4 3871 -9 3863 -8
-12 -23 -9 -94 17 l-85 31 -57 -86 c-31 -48 -54 -92 -51 -98 2 -6 32 -22 65
-34 62 -22 73 -37 51 -71 -8 -12 -18 -11 -72 9 -35 13 -71 24 -82 25 -16 1
-76 -80 -136 -184 -7 -11 -13 -12 -34 -2 -14 6 -26 16 -26 21 0 6 25 49 55 95
30 47 56 91 57 97 2 6 -42 28 -96 50 -75 29 -102 36 -107 26 -53 -88 -126
-196 -135 -196 -5 -1 -19 5 -29 13 -18 13 -18 16 19 77 22 35 50 78 62 96 13
17 24 36 24 41 0 5 -27 19 -60 31 -58 21 -67 32 -54 65 8 22 20 20 93 -10 35
-14 64 -24 65 -22 1 2 28 43 60 92 32 48 54 92 49 96 -4 4 -29 15 -55 25 -48
18 -58 34 -38 65 8 13 15 12 57 -4 87 -34 82 -36 146 66 32 51 63 100 67 108
7 12 12 12 34 0 14 -7 26 -18 25 -24 0 -6 -29 -54 -64 -106 l-63 -95 40 -18
c22 -11 68 -29 103 -42 l62 -24 62 97 c35 53 66 104 71 112 7 12 12 12 34 0
14 -7 26 -16 26 -20 0 -4 -29 -53 -65 -110 -36 -56 -64 -104 -63 -105 2 -1 28
-12 58 -23 30 -11 63 -23 73 -27 16 -7 17 149 17 3184 l0 3191 -3092 -1
c-1701 -1 -3052 -5 -3001 -10 346 -31 683 -139 928 -299 105 -69 260 -225 313
-315 159 -272 109 -557 -142 -804 -222 -219 -581 -372 -1016 -432 -59 -9 -188
-13 -340 -13 -264 1 -365 13 -586 70 l-101 26 -149 -130 c-329 -287 -569 -489
-572 -482 -2 4 35 102 81 216 183 452 227 563 227 571 0 5 -31 30 -68 56 -129
88 -264 240 -313 354 -45 102 -53 145 -53 258 0 128 19 195 86 310 53 90 208
246 313 315 245 160 582 268 928 299 51 5 -1851 9 -4225 10 l-4318 1 0 -7085z
m4575 6250 c24 -92 45 -168 47 -169 7 -6 225 -120 256 -135 17 -8 32 -18 32
-21 -1 -4 -206 -158 -242 -181 -6 -4 -23 -75 -39 -159 -15 -84 -30 -154 -32
-156 -2 -2 -63 44 -135 102 l-132 106 -160 -28 c-88 -15 -162 -25 -166 -22 -3
4 15 71 40 151 25 80 46 149 46 155 0 5 -32 64 -70 130 -39 66 -73 128 -76
136 -5 14 14 16 167 16 l173 0 119 125 c66 69 121 124 124 121 2 -2 24 -79 48
-171z m8559 -157 c25 -77 43 -118 54 -123 26 -10 192 -109 192 -115 0 -3 -45
-36 -100 -73 -110 -75 -101 -59 -120 -216 -5 -46 -12 -86 -14 -89 -3 -2 -51
24 -107 58 l-103 62 -120 -11 c-66 -6 -121 -9 -122 -8 -2 2 13 53 32 115 28
90 34 119 26 140 -6 15 -26 71 -46 125 l-36 99 48 -6 c26 -3 85 -8 132 -11
l85 -5 74 95 c41 52 78 92 82 88 4 -5 23 -60 43 -125z m-6295 -2610 c53 -23
119 -57 147 -75 88 -57 211 -199 268 -310 22 -44 63 -199 77 -294 11 -76 12
-79 38 -79 36 0 87 -33 105 -68 22 -43 30 -124 16 -167 -19 -57 -64 -102 -111
-110 -56 -10 -87 -40 -104 -103 -7 -30 -30 -78 -51 -107 -35 -51 -36 -57 -29
-107 4 -29 7 -74 6 -100 -1 -53 15 -65 73 -54 36 7 55 24 79 72 16 31 18 32
104 37 48 3 105 10 125 16 97 30 175 132 185 243 4 39 11 62 21 65 8 3 57 -6
109 -21 71 -20 99 -24 108 -16 10 9 57 1 182 -30 406 -100 728 -252 1058 -500
738 -553 1327 -1426 1610 -2385 320 -1085 312 -2250 -22 -3280 -178 -549 -560
-1230 -839 -1496 -225 -213 -918 -549 -1510 -731 l-141 -43 -22 -90 c-39 -153
-195 -710 -222 -794 l-11 -34 -237 6 c-295 7 -523 22 -667 43 l-110 16 8 72
c5 39 19 152 33 251 41 301 41 298 19 292 -102 -31 -861 -43 -1101 -18 -73 7
-139 19 -147 25 -9 7 -75 340 -191 966 -97 525 -178 956 -179 957 -6 8 -216
48 -216 41 0 -11 339 -1876 347 -1907 6 -23 4 -23 -33 -17 -94 17 -362 89
-464 125 l-112 40 6 -80 c3 -43 4 -79 1 -79 -5 0 -346 215 -485 305 -36 23
-100 64 -143 91 -109 68 -164 109 -239 179 -75 70 -224 205 -288 261 -25 21
-65 58 -90 81 -25 23 -72 60 -105 81 -78 51 -136 108 -215 212 -35 47 -103
126 -150 175 -134 139 -208 233 -289 362 -149 236 -200 309 -263 379 -85 94
-118 160 -125 256 -13 172 16 253 292 813 299 607 601 1299 555 1270 -4 -3
-13 10 -20 28 -7 17 -30 68 -50 112 -21 44 -54 118 -75 165 -20 47 -89 198
-152 337 -105 229 -146 348 -115 329 8 -4 10 -2 6 8 -11 28 38 95 91 124 26
15 74 17 400 17 l369 0 56 185 c110 363 190 570 350 895 293 597 561 1006 840
1285 209 209 432 375 664 494 l110 56 30 -29 c41 -39 146 -111 162 -111 8 0 3
29 -17 96 -77 257 -87 481 -37 854 12 92 29 120 75 120 56 0 154 72 262 194
68 78 97 120 112 161 10 30 19 61 19 69 0 11 17 15 81 15 75 0 91 -3 178 -41z
m-3074 -625 l17 -73 75 -42 c84 -48 85 -43 -19 -101 l-57 -32 -17 -77 c-9 -43
-19 -78 -21 -78 -3 0 -32 21 -65 46 l-60 47 -74 -6 c-41 -3 -74 -2 -74 2 0 5
14 41 32 80 l32 72 -32 65 c-18 35 -32 69 -32 74 0 6 35 10 83 10 l83 0 49 50
c27 27 52 47 56 42 3 -4 14 -40 24 -79z m8174 -2636 l50 -64 82 -6 c45 -4 84
-9 87 -11 2 -3 -18 -36 -46 -73 l-51 -68 15 -70 c8 -38 13 -75 12 -81 -2 -8
-22 -7 -73 7 l-70 18 -66 -34 c-37 -19 -70 -35 -73 -35 -3 0 -6 38 -6 84 l0
84 -59 49 c-33 26 -60 51 -60 54 -1 3 32 20 71 37 l73 30 29 71 c15 39 30 71
31 71 2 0 26 -29 54 -63z"/>
<path d="M6432 9910 c0 -14 2 -19 5 -12 2 6 2 18 0 25 -3 6 -5 1 -5 -13z"/>
<path d="M7166 8422 c-115 -188 -399 -543 -487 -608 -60 -44 -119 -23 -161 59
-19 37 -20 51 -13 137 4 52 9 181 10 286 1 105 5 196 9 203 6 10 -2 11 -35 7
-24 -4 -186 -22 -359 -41 -256 -29 -332 -41 -405 -65 -49 -16 -113 -33 -140
-39 -233 -47 -403 -278 -504 -687 -39 -158 -73 -265 -210 -667 -62 -185 -201
-656 -201 -685 0 -7 190 -11 648 -12 623 -1 649 -1 688 -20 22 -11 51 -31 63
-44 22 -23 80 -157 231 -531 38 -93 90 -219 115 -280 26 -60 64 -155 86 -210
22 -55 48 -117 57 -139 9 -21 35 -81 57 -135 l41 -96 119 -12 c224 -23 715
-27 955 -9 118 9 225 19 237 22 26 7 24 -10 59 569 14 236 27 431 28 432 1 1
56 -2 122 -8 141 -12 480 -7 544 8 25 6 80 14 122 18 l77 7 12 46 c17 66 24
709 9 932 -6 96 -22 292 -35 435 -22 233 -30 280 -74 455 -74 294 -101 352
-208 450 -78 72 -153 106 -327 151 -223 57 -927 168 -1066 169 -3 0 -32 -44
-64 -98z m705 -1097 c23 -16 53 -50 66 -75 l24 -45 -3 -355 c-3 -354 -3 -355
-27 -393 -13 -21 -42 -50 -65 -65 l-41 -27 -257 0 -256 0 -43 30 c-23 17 -52
48 -63 70 -20 38 -21 58 -24 387 -3 338 -2 348 19 393 23 49 69 91 116 105 15
5 137 8 270 7 l241 -2 43 -30z"/>
<path d="M7327 6929 c-13 -8 -15 -14 -7 -28 5 -10 7 -42 3 -70 -4 -34 -2 -51
5 -51 6 0 9 6 6 14 -4 10 1 14 15 13 15 -1 21 -8 21 -24 0 -14 6 -23 15 -23
18 0 21 50 3 51 -7 0 3 6 22 13 19 7 33 17 30 22 -3 5 -9 8 -13 6 -5 -1 -6 2
-3 7 10 16 -14 55 -41 69 -32 14 -33 14 -56 1z m33 -9 c0 -5 -4 -10 -10 -10
-5 0 -10 5 -10 10 0 6 5 10 10 10 6 0 10 -4 10 -10z m49 -33 c-2 -2 -16 -7
-31 -11 -21 -5 -28 -3 -28 8 0 16 40 26 54 14 5 -4 8 -9 5 -11z"/>
<path d="M7523 6885 c-1 -19 3 -35 8 -35 5 0 9 16 9 35 0 19 -4 35 -8 35 -4 0
-8 -16 -9 -35z"/>
<path d="M7610 6885 c0 -19 5 -35 10 -35 6 0 10 16 10 35 0 19 -4 35 -10 35
-5 0 -10 -16 -10 -35z"/>
<path d="M7475 6880 c4 -14 9 -27 12 -30 6 -7 23 23 22 40 0 11 -2 11 -6 2 -4
-10 -8 -10 -20 0 -14 11 -15 10 -8 -12z"/>
<path d="M7550 6875 c0 -14 5 -25 10 -25 6 0 10 10 10 23 0 17 2 19 9 7 6 -8
7 -18 5 -22 -3 -4 0 -8 5 -8 6 0 11 11 11 25 0 20 -5 25 -25 25 -20 0 -25 -5
-25 -25z"/>
<path d="M7644 6885 c-8 -20 4 -35 27 -35 14 0 19 7 19 25 0 18 -5 25 -20 25
-11 0 -23 -7 -26 -15z m30 -16 c-3 -5 -10 -7 -15 -3 -5 3 -7 10 -3 15 3 5 10
7 15 3 5 -3 7 -10 3 -15z"/>
<path d="M7705 6888 c-10 -29 2 -53 26 -53 20 0 25 6 27 33 3 29 1 32 -23 32
-14 0 -28 -6 -30 -12z m35 -14 c0 -8 -4 -12 -10 -9 -5 3 -10 10 -10 16 0 5 5
9 10 9 6 0 10 -7 10 -16z"/>
<path d="M7774 6885 c-8 -21 4 -35 29 -34 21 0 21 1 2 9 -17 7 -17 9 -2 9 9 1
17 8 17 16 0 19 -39 20 -46 0z"/>
<path d="M7740 6810 c0 -5 5 -10 10 -10 6 0 10 5 10 10 0 6 -4 10 -10 10 -5 0
-10 -4 -10 -10z"/>
<path d="M7570 6802 c0 -5 7 -9 15 -9 8 0 15 4 15 9 0 4 -7 8 -15 8 -8 0 -15
-4 -15 -8z"/>
<path d="M7672 6795 c-11 -12 -10 -15 3 -15 8 0 15 7 15 15 0 18 -2 18 -18 0z"/>
<path d="M7811 6794 c0 -11 3 -14 6 -6 3 7 2 16 -1 19 -3 4 -6 -2 -5 -13z"/>
<path d="M6860 4359 c0 -6 14 -41 30 -79 17 -38 30 -73 30 -79 0 -13 286 -15
495 -4 l130 7 -330 82 c-181 46 -336 83 -342 83 -7 1 -13 -4 -13 -10z"/>
<path d="M14591 7810 c-28 -44 -54 -86 -57 -93 -3 -9 24 -25 88 -50 52 -20 97
-37 101 -37 4 0 35 41 67 92 l60 92 -93 38 c-50 20 -97 37 -104 37 -6 1 -34
-35 -62 -79z"/>
</g>
</svg>
