<?xml version="1.0" standalone="no"?>
<!DOCTYPE svg PUBLIC "-//W3C//DTD SVG 20010904//EN"
 "http://www.w3.org/TR/2001/REC-SVG-20010904/DTD/svg10.dtd">
<svg version="1.0" xmlns="http://www.w3.org/2000/svg"
 width="1890.000000pt" height="1417.000000pt" viewBox="0 0 1890.000000 1417.000000"
 preserveAspectRatio="xMidYMid meet">

<g transform="translate(0.000000,1417.000000) scale(0.100000,-0.100000)"
fill="#000000" stroke="none">
<path d="M0 7085 l0 -7085 9450 0 9450 0 0 7085 0 7085 -9450 0 -9450 0 0
-7085z m2860 2672 c178 -47 570 -220 722 -319 398 -260 818 -744 1102 -1268
162 -300 247 -481 306 -650 35 -100 36 -106 69 -268 25 -120 30 -332 9 -332
-7 0 -23 -3 -34 -6 -21 -5 -21 -2 -27 148 -9 266 -72 466 -268 854 -236 466
-443 768 -736 1075 -277 289 -486 431 -888 602 -256 108 -371 133 -583 124
-295 -13 -413 -71 -494 -243 -27 -57 -30 -73 -26 -137 4 -94 39 -167 185 -392
61 -93 137 -217 168 -275 32 -58 72 -125 90 -150 86 -119 138 -275 138 -410
-1 -47 -1 -203 -2 -347 -1 -145 3 -311 9 -370 5 -60 10 -240 10 -401 0 -316
11 -502 36 -596 60 -225 220 -369 494 -443 50 -14 103 -18 230 -18 175 0 307
17 475 60 50 12 135 28 190 34 55 6 120 14 145 17 74 9 36 -10 -115 -59 -270
-87 -466 -121 -700 -121 -146 -1 -182 3 -254 22 -140 38 -247 94 -364 192 -56
46 -147 208 -171 305 -26 105 -49 743 -51 1450 -2 368 -2 370 -27 447 -14 42
-47 112 -73 155 -27 43 -78 130 -115 193 -73 125 -141 236 -214 345 -26 39
-70 117 -99 174 -52 104 -52 104 -52 200 0 89 2 101 33 160 109 213 272 285
632 277 126 -3 173 -8 250 -29z m-55 -227 c83 -36 144 -123 152 -219 5 -48 1
-68 -19 -112 -50 -109 -121 -154 -243 -154 -66 0 -90 5 -137 27 -159 74 -201
215 -109 360 70 111 229 154 356 98z m1223 -804 c71 -36 132 -99 168 -172 27
-54 29 -67 29 -169 0 -100 -3 -115 -27 -161 -37 -70 -110 -140 -177 -171 -44
-20 -73 -26 -136 -27 -70 -1 -88 3 -140 28 -74 37 -141 104 -180 182 -28 55
-30 67 -30 169 0 101 2 115 28 168 33 66 84 120 142 150 65 33 85 37 180 34
75 -3 99 -8 143 -31z m-878 -141 c65 -33 145 -125 182 -210 45 -101 45 -186 0
-277 -37 -76 -83 -120 -162 -157 -45 -21 -69 -25 -135 -25 -89 1 -139 16 -212
64 -101 67 -152 161 -152 281 -2 185 115 338 273 358 68 9 147 -4 206 -34z
m1008 -812 c-10 -2 -28 -2 -40 0 -13 2 -5 4 17 4 22 1 32 -1 23 -4z m-308
-217 c0 -2 -11 -1 -25 2 -14 2 -22 8 -19 13 4 8 44 -6 44 -15z m-40 -159 c13
-5 13 -6 -1 -6 -8 -1 -24 6 -35 15 -19 15 -19 15 1 6 11 -5 27 -12 35 -15z
m493 -484 c-7 -2 -19 -2 -25 0 -7 3 -2 5 12 5 14 0 19 -2 13 -5z m-60 -10 c-7
-2 -19 -2 -25 0 -7 3 -2 5 12 5 14 0 19 -2 13 -5z m-50 -10 c-7 -2 -19 -2 -25
0 -7 3 -2 5 12 5 14 0 19 -2 13 -5z m857 -131 c0 -5 -9 -38 -21 -73 -46 -141
-144 -264 -299 -370 -75 -52 -289 -179 -301 -179 -3 0 -6 16 -5 36 1 36 4 38
127 113 173 104 253 165 310 236 51 62 93 138 105 190 4 17 11 36 17 43 11 13
67 17 67 4z m-919 -128 c9 -11 2 -9 -18 6 -18 13 -33 25 -33 27 0 8 38 -17 51
-33z m239 -18 c0 -2 -7 -7 -16 -10 -8 -3 -12 -2 -9 4 6 10 25 14 25 6z m-184
-27 c19 -22 19 -22 -3 -10 -13 6 -23 16 -23 21 0 15 5 12 26 -11z m124 -19 c0
-5 -5 -10 -11 -10 -5 0 -7 5 -4 10 3 6 8 10 11 10 2 0 4 -4 4 -10z"/>
<path d="M3836 8269 c-38 -30 -35 -72 8 -115 27 -27 42 -34 74 -34 50 0 72 26
72 83 0 77 -90 116 -154 66z"/>
<path d="M3030 8113 c-59 -22 -66 -79 -16 -129 27 -27 42 -34 73 -34 52 0 73
23 73 79 0 70 -61 109 -130 84z"/>
</g>
</svg>
